# xmcd
#
# Track frame offsets:
#	150
#	12775
#	24577
#	37028
#	49336
#	61044
#	73699
#	86179
#	99138
#	110186
#	121028
#	132485
#	143689
#	154814
#	167246
#	179483
#	190475
#	202805
#	214997
#	226194
#	238284
#	251015
#	264146
#	277276
#	290767
#	306072
#	317154
#	329973
#
# Disc length: 4551 seconds
#
# Revision: 0
# Processed by: cddbd v1.5.2PL0 Copyright (c) Steve Scherf et al.
# Submitted via: EZCDAudioConverter 2.2.2.1
#
DISCID=af11c51c
DTITLE=Riley Crabtree - When Hank Williams Met Jimmie Rodgers
DYEAR=1900
DGENRE=Countr
TTITLE0=Blue Yodel No. 5
TTITLE1=Waiting For A Train
TTITLE2=Blue Yodel No. 1
TTITLE3=In The Jailhouse Now
TTITLE4=Mule Skinner Blues
TTITLE5=Away Out On The Mountain
TTITLE6=T. For Texas
TTITLE7=T.B. Blues
TTITLE8=Shackles And Chains (1949)
TTITLE9=You Had To Stray
TTITLE10=If I Could Buy Your Love
TTITLE11=A Lifetime To Regret
TTITLE12=Lonely World
TTITLE13=Flowers On My Mother's Grave
TTITLE14=Ozark Waltz
TTITLE15=If My Tears Were Gold
TTITLE16=Free From Shackles And Chains
TTITLE17=Broken Heart - Falling Tears
TTITLE18=Get Away From It All
TTITLE19=Shackles And Chains (1950)
TTITLE20=Between The Pages Of The Bible
TTITLE21=Information Please
TTITLE22=An Orchid In My Bouquet
TTITLE23=Tonight
TTITLE24=When Hank Williams Met Jimmie Rodgers
TTITLE25=I'll Make You Want Me
TTITLE26=Don't Turn Away From Me
TTITLE27=Meet Me At Joe's
EXTD=
EXTT0=
EXTT1=
EXTT2=
EXTT3=
EXTT4=
EXTT5=
EXTT6=
EXTT7=
EXTT8=
EXTT9=
EXTT10=
EXTT11=
EXTT12=
EXTT13=
EXTT14=
EXTT15=
EXTT16=
EXTT17=
EXTT18=
EXTT19=
EXTT20=
EXTT21=
EXTT22=
EXTT23=
EXTT24=
EXTT25=
EXTT26=
EXTT27=
PLAYORDER=
